<mxfile host="app.diagrams.net" modified="2020-11-27T15:05:13.934Z" agent="5.0 (Windows NT 10.0; Win64; x64) AppleWebKit/537.36 (KHTML, like Gecko) Chrome/87.0.4280.67 Safari/537.36 Edg/87.0.664.47" etag="2reunxbobMDy3ojXzEQK" version="13.10.0" type="github">
  <diagram id="nlS5gtPQgaXyCNf9stJ4" name="Page-1">
    <mxGraphModel dx="750" dy="844" grid="1" gridSize="10" guides="1" tooltips="1" connect="1" arrows="1" fold="1" page="1" pageScale="1" pageWidth="850" pageHeight="1100" background="#ffffff" math="0" shadow="0">
      <root>
        <mxCell id="0" />
        <mxCell id="1" parent="0" />
        <mxCell id="AmMFBrzKEmLEcXTjl6NK-1" value="" style="ellipse;html=1;shape=startState;fillColor=#000000;strokeColor=#ff0000;" vertex="1" parent="1">
          <mxGeometry x="90" y="365" width="30" height="30" as="geometry" />
        </mxCell>
        <mxCell id="AmMFBrzKEmLEcXTjl6NK-2" value="" style="edgeStyle=orthogonalEdgeStyle;html=1;verticalAlign=bottom;endArrow=open;endSize=8;strokeColor=#ff0000;" edge="1" parent="1">
          <mxGeometry relative="1" as="geometry">
            <mxPoint x="177" y="380" as="targetPoint" />
            <mxPoint x="117" y="380" as="sourcePoint" />
          </mxGeometry>
        </mxCell>
        <mxCell id="AmMFBrzKEmLEcXTjl6NK-3" value="" style="html=1;points=[];perimeter=orthogonalPerimeter;fillColor=#000000;strokeColor=none;" vertex="1" parent="1">
          <mxGeometry x="177" y="340" width="5" height="80" as="geometry" />
        </mxCell>
        <mxCell id="AmMFBrzKEmLEcXTjl6NK-4" value="" style="html=1;verticalAlign=bottom;endArrow=block;" edge="1" parent="1">
          <mxGeometry width="80" relative="1" as="geometry">
            <mxPoint x="184" y="365" as="sourcePoint" />
            <mxPoint x="240" y="365" as="targetPoint" />
          </mxGeometry>
        </mxCell>
        <mxCell id="AmMFBrzKEmLEcXTjl6NK-5" value="" style="html=1;verticalAlign=bottom;endArrow=block;entryX=0;entryY=0.25;entryDx=0;entryDy=0;" edge="1" parent="1" target="AmMFBrzKEmLEcXTjl6NK-7">
          <mxGeometry width="80" relative="1" as="geometry">
            <mxPoint x="182" y="405" as="sourcePoint" />
            <mxPoint x="240" y="405" as="targetPoint" />
          </mxGeometry>
        </mxCell>
        <mxCell id="AmMFBrzKEmLEcXTjl6NK-6" value="&lt;font style=&quot;font-size: 14px&quot;&gt;Hiển thị trang chủ&lt;/font&gt;" style="html=1;align=center;verticalAlign=top;rounded=1;absoluteArcSize=1;arcSize=10;dashed=0;" vertex="1" parent="1">
          <mxGeometry x="240" y="345" width="120" height="30" as="geometry" />
        </mxCell>
        <mxCell id="AmMFBrzKEmLEcXTjl6NK-7" value="&lt;font style=&quot;font-size: 14px&quot;&gt;Hiển thị trang chi tiết&amp;nbsp;&lt;br&gt;sản phẩm cụ thể&lt;/font&gt;" style="html=1;align=center;verticalAlign=top;rounded=1;absoluteArcSize=1;arcSize=10;dashed=0;" vertex="1" parent="1">
          <mxGeometry x="230" y="390" width="140" height="55" as="geometry" />
        </mxCell>
        <mxCell id="AmMFBrzKEmLEcXTjl6NK-8" value="" style="html=1;points=[];perimeter=orthogonalPerimeter;fillColor=#000000;strokeColor=none;" vertex="1" parent="1">
          <mxGeometry x="400" y="345" width="5" height="80" as="geometry" />
        </mxCell>
        <mxCell id="AmMFBrzKEmLEcXTjl6NK-10" value="" style="html=1;verticalAlign=bottom;endArrow=block;entryX=1.376;entryY=0.174;entryDx=0;entryDy=0;entryPerimeter=0;" edge="1" parent="1" target="AmMFBrzKEmLEcXTjl6NK-8">
          <mxGeometry width="80" relative="1" as="geometry">
            <mxPoint x="360" y="359" as="sourcePoint" />
            <mxPoint x="400" y="315" as="targetPoint" />
          </mxGeometry>
        </mxCell>
        <mxCell id="AmMFBrzKEmLEcXTjl6NK-11" value="" style="html=1;verticalAlign=bottom;endArrow=block;entryX=-0.367;entryY=0.787;entryDx=0;entryDy=0;entryPerimeter=0;" edge="1" parent="1" target="AmMFBrzKEmLEcXTjl6NK-8">
          <mxGeometry width="80" relative="1" as="geometry">
            <mxPoint x="370" y="408" as="sourcePoint" />
            <mxPoint x="390" y="412" as="targetPoint" />
          </mxGeometry>
        </mxCell>
        <mxCell id="AmMFBrzKEmLEcXTjl6NK-12" value="Thêm sản phẩm &lt;br&gt;vào giỏ hàng" style="html=1;align=center;verticalAlign=top;rounded=1;absoluteArcSize=1;arcSize=10;dashed=0;" vertex="1" parent="1">
          <mxGeometry x="440" y="365" width="110" height="40" as="geometry" />
        </mxCell>
        <mxCell id="AmMFBrzKEmLEcXTjl6NK-13" value="" style="html=1;verticalAlign=bottom;endArrow=block;exitX=0.277;exitY=0.507;exitDx=0;exitDy=0;exitPerimeter=0;" edge="1" parent="1" source="AmMFBrzKEmLEcXTjl6NK-8" target="AmMFBrzKEmLEcXTjl6NK-12">
          <mxGeometry x="0.5417" y="48" width="80" relative="1" as="geometry">
            <mxPoint x="370" y="365" as="sourcePoint" />
            <mxPoint x="450" y="365" as="targetPoint" />
            <mxPoint as="offset" />
          </mxGeometry>
        </mxCell>
        <mxCell id="AmMFBrzKEmLEcXTjl6NK-14" value="Hiển thị trang thông &lt;br&gt;tin giỏ hàng" style="html=1;align=center;verticalAlign=top;rounded=1;absoluteArcSize=1;arcSize=10;dashed=0;" vertex="1" parent="1">
          <mxGeometry x="590" y="365" width="110" height="40" as="geometry" />
        </mxCell>
        <mxCell id="AmMFBrzKEmLEcXTjl6NK-15" value="&lt;font style=&quot;font-size: 11px&quot;&gt;Xóa sản phẩm khỏi giỏ hàng&lt;/font&gt;" style="rhombus;whiteSpace=wrap;html=1;fillColor=#ffffc0;strokeColor=#ff0000;" vertex="1" parent="1">
          <mxGeometry x="570" y="445" width="140" height="60" as="geometry" />
        </mxCell>
        <mxCell id="AmMFBrzKEmLEcXTjl6NK-16" value="[Không]" style="edgeStyle=orthogonalEdgeStyle;html=1;align=left;verticalAlign=bottom;endArrow=open;endSize=8;strokeColor=#ff0000;entryX=1;entryY=0.5;entryDx=0;entryDy=0;" edge="1" source="AmMFBrzKEmLEcXTjl6NK-15" parent="1" target="AmMFBrzKEmLEcXTjl6NK-14">
          <mxGeometry x="-1" relative="1" as="geometry">
            <mxPoint x="770" y="385" as="targetPoint" />
            <Array as="points">
              <mxPoint x="760" y="465" />
              <mxPoint x="760" y="385" />
            </Array>
          </mxGeometry>
        </mxCell>
        <mxCell id="AmMFBrzKEmLEcXTjl6NK-17" value="[Xóa]" style="edgeStyle=orthogonalEdgeStyle;html=1;align=left;verticalAlign=top;endArrow=open;endSize=8;strokeColor=#ff0000;" edge="1" source="AmMFBrzKEmLEcXTjl6NK-15" parent="1">
          <mxGeometry x="-1" relative="1" as="geometry">
            <mxPoint x="640" y="545" as="targetPoint" />
          </mxGeometry>
        </mxCell>
        <mxCell id="AmMFBrzKEmLEcXTjl6NK-18" value="" style="html=1;verticalAlign=bottom;endArrow=block;" edge="1" parent="1">
          <mxGeometry x="-1" y="-100" width="80" relative="1" as="geometry">
            <mxPoint x="550" y="384.5" as="sourcePoint" />
            <mxPoint x="590" y="385" as="targetPoint" />
            <mxPoint x="-80" y="-40" as="offset" />
          </mxGeometry>
        </mxCell>
        <mxCell id="AmMFBrzKEmLEcXTjl6NK-19" value="Cập nhật dữ liệu&amp;nbsp;&lt;br&gt;hệ thống" style="html=1;align=center;verticalAlign=top;rounded=1;absoluteArcSize=1;arcSize=10;dashed=0;" vertex="1" parent="1">
          <mxGeometry x="585" y="545" width="110" height="40" as="geometry" />
        </mxCell>
        <mxCell id="AmMFBrzKEmLEcXTjl6NK-20" value="" style="html=1;verticalAlign=bottom;endArrow=block;" edge="1" parent="1" target="AmMFBrzKEmLEcXTjl6NK-21">
          <mxGeometry x="-1" y="42" width="80" relative="1" as="geometry">
            <mxPoint x="580" y="560" as="sourcePoint" />
            <mxPoint x="540" y="675" as="targetPoint" />
            <mxPoint x="-30" y="12" as="offset" />
          </mxGeometry>
        </mxCell>
        <mxCell id="AmMFBrzKEmLEcXTjl6NK-21" value="" style="ellipse;html=1;shape=endState;fillColor=#000000;strokeColor=#ff0000;" vertex="1" parent="1">
          <mxGeometry x="450" y="545" width="30" height="30" as="geometry" />
        </mxCell>
        <mxCell id="AmMFBrzKEmLEcXTjl6NK-22" value="" style="html=1;verticalAlign=bottom;endArrow=block;exitX=0.25;exitY=1;exitDx=0;exitDy=0;entryX=0.5;entryY=0;entryDx=0;entryDy=0;" edge="1" parent="1" source="AmMFBrzKEmLEcXTjl6NK-14" target="AmMFBrzKEmLEcXTjl6NK-21">
          <mxGeometry x="-0.5" y="50" width="80" relative="1" as="geometry">
            <mxPoint x="415" y="505" as="sourcePoint" />
            <mxPoint x="495" y="505" as="targetPoint" />
            <Array as="points">
              <mxPoint x="618" y="435" />
              <mxPoint x="465" y="435" />
            </Array>
            <mxPoint as="offset" />
          </mxGeometry>
        </mxCell>
        <mxCell id="AmMFBrzKEmLEcXTjl6NK-23" value="" style="html=1;verticalAlign=bottom;endArrow=block;entryX=0.5;entryY=0;entryDx=0;entryDy=0;" edge="1" parent="1" target="AmMFBrzKEmLEcXTjl6NK-15">
          <mxGeometry x="-0.25" y="40" width="80" relative="1" as="geometry">
            <mxPoint x="640" y="405" as="sourcePoint" />
            <mxPoint x="645" y="455" as="targetPoint" />
            <mxPoint as="offset" />
          </mxGeometry>
        </mxCell>
        <mxCell id="AmMFBrzKEmLEcXTjl6NK-24" value="&lt;font style=&quot;font-size: 14px&quot;&gt;Kết thúc use case&amp;nbsp;&lt;br&gt;quản lý giỏ hàng&lt;/font&gt;" style="text;html=1;align=center;verticalAlign=middle;resizable=0;points=[];autosize=1;" vertex="1" parent="1">
          <mxGeometry x="410" y="585" width="130" height="40" as="geometry" />
        </mxCell>
        <mxCell id="AmMFBrzKEmLEcXTjl6NK-27" value="&lt;font style=&quot;font-size: 14px&quot;&gt;Bắt đầu use case&amp;nbsp;&lt;br&gt;quản lý giỏ hàng&lt;/font&gt;" style="text;html=1;align=center;verticalAlign=middle;resizable=0;points=[];autosize=1;" vertex="1" parent="1">
          <mxGeometry x="30" y="405" width="130" height="40" as="geometry" />
        </mxCell>
      </root>
    </mxGraphModel>
  </diagram>
</mxfile>
